<?xml version="1.0" encoding="UTF-8" standalone="no"?>
<!-- Created with Inkscape (http://www.inkscape.org/) -->

<svg
   version="1.1"
   id="svg38"
   width="697.99994"
   height="179.92805"
   viewBox="0 0 697.99994 179.92806"
   sodipodi:docname="exit_game_button.png"
   xmlns:inkscape="http://www.inkscape.org/namespaces/inkscape"
   xmlns:sodipodi="http://sodipodi.sourceforge.net/DTD/sodipodi-0.dtd"
   xmlns="http://www.w3.org/2000/svg"
   xmlns:svg="http://www.w3.org/2000/svg">
  <defs
     id="defs42" />
  <sodipodi:namedview
     id="namedview40"
     pagecolor="#505050"
     bordercolor="#ffffff"
     borderopacity="1"
     inkscape:showpageshadow="0"
     inkscape:pageopacity="0"
     inkscape:pagecheckerboard="1"
     inkscape:deskcolor="#d1d1d1"
     showgrid="false" />
  <g
     inkscape:groupmode="layer"
     inkscape:label="Image"
     id="g44"
     transform="translate(-1.6666687,-0.70263224)">
    <path
       style="fill:#afafaf;stroke-width:1.33333"
       d="m 417.70757,172.76755 c 4.49397,-8.51146 7.76045,-18.55918 9.31944,-28.66666 l 0.87404,-5.66667 h -15.52678 c -37.61082,0 -53.10137,-19.38333 -53.27789,-66.666668 C 358.91393,22.892894 375.41327,2.8860932 417.0949,1.4396512 l 21.23841,-0.73701898 -0.002,10.53246178 -0.002,10.532462 -2.3314,-4.666666 C 430.90458,6.9051722 406.20643,1.4584772 396.69874,8.4342232 l -3.63456,2.6666668 0.30123,59.987732 0.30124,59.987728 4.66666,2.35234 c 18.4273,9.2887 29.78206,-4.34404 30.43626,-36.542368 0.52144,-25.66348 0.0472,-27.3568 -8.02364,-28.64738 l -5.50323,-0.88 5.87864,-2.30984 c 3.23325,-1.27042 8.17043,-3.6624 10.97149,-5.315516 l 5.09286,-3.005666 6.05078,5.853152 6.05079,5.85315 -0.70785,28.66667 c -1.03756,42.018598 -5.81206,57.175158 -23.62086,74.983958 -11.19709,11.19709 -12.88646,11.35616 -7.25098,0.6827 z m -30.17406,-101.999998 -0.1332,-50.333329 -2.53929,7.862912 c -7.46847,23.126051 -7.62393,62.383077 -0.33981,85.803755 1.19738,3.85 2.39494,7 2.66122,7 0.26628,0 0.42424,-22.649998 0.35102,-50.333338 z M 182.05837,112.29127 c -0.43546,-42.327338 -0.31629,-41.809798 -9.64656,-41.893738 -3.38694,-0.0305 -2.17208,-0.94039 7.16483,-5.36634 l 11.24332,-5.329644 5.09001,4.970264 5.09002,4.97027 v 35.623458 35.62347 l -3.92279,0.86158 c -2.15753,0.47388 -6.33125,2.60628 -9.27495,4.73868 l -5.35217,3.8771 z m 53.60828,-3.79422 V 67.767552 h -8.66666 c -6.81482,0 -8.66667,-0.42735 -8.66667,-2 0,-1.57265 1.85185,-2 8.66667,-2 h 8.66666 v -8.587974 c 0,-9.452403 -0.58664,-10.256594 -8.29064,-11.365281 l -4.95732,-0.713408 11.28002,-5.171741 11.28,-5.171741 5.34397,5.506601 c 5.27176,5.432197 5.34397,5.641699 5.34397,15.505074 v 9.99847 h 9.33333 c 7.40742,0 9.33334,0.4127 9.33334,2 0,1.58731 -1.92592,2 -9.33334,2 h -9.33333 v 35.229938 35.22993 l -5,1.58224 c -2.75,0.87023 -7.25,3.34504 -10,5.49956 l -5,3.91733 z m 338.66666,0.46539 c 0,-42.252998 -0.0447,-42.528218 -6.9112,-42.528218 h -3.71119 l -0.35548,34.866458 -0.35547,34.86645 -5.21236,1.80393 c -2.8668,0.99217 -7.19078,3.31296 -9.60885,5.15731 l -4.39649,3.35337 -0.39115,-38.74042 c -0.42558,-42.150898 -0.24842,-41.243198 -8.05781,-41.286678 -2.01667,-0.0112 -3.66667,-0.62042 -3.66667,-1.35375 0,-0.73334 0.68007,-1.33334 1.51126,-1.33334 0.8312,0 5.50461,-2.035122 10.38538,-4.522496 l 8.87413,-4.522499 4.27898,5.096751 c 4.94089,5.885164 6.81305,5.778174 19.54341,-1.116886 l 7.20433,-3.902032 4.86062,5.129412 c 5.44881,5.75013 5.0758,5.78284 19.85086,-1.740558 l 6.50898,-3.314343 5.15769,5.595435 5.15769,5.595436 v 35.306508 35.3065 l -5.27324,1.57991 c -2.90029,0.86894 -7.06634,3.08869 -9.2579,4.93277 l -3.98466,3.35287 -0.40877,-38.77181 c -0.44471,-42.181868 -0.26735,-41.274398 -8.07543,-41.317878 l -3.66666,-0.0204 v 35.008698 35.00869 l -5.66667,1.75082 c -3.11667,0.96296 -7.61667,3.62675 -10,5.91954 l -4.33333,4.16869 z m -432.88056,31.80511 c -4.17085,-4.52756 -5.99155,-8.2799 -9.05738,-18.66666 -2.11045,-7.15 -4.24285,-13 -4.73868,-13 -1.96898,0 -7.15753,27.16638 -5.3064,27.78344 0.96877,0.32292 -2.03296,2.30952 -6.67052,4.41466 -12.13638,5.50914 -4.96098,-23.56571 8.59161,-34.81336 2.7613,-2.29168 2.68321,-3.02009 -1.95356,-18.220758 -6.08439,-19.94637 -6.27699,-20.29378 -12.12358,-21.8681 l -5.1562,-1.38842 9.64764,-5.200226 9.64764,-5.200222 5.46613,5.982084 c 4.39934,4.814594 6.19575,8.452814 9.20466,18.641834 2.0562,6.96285 4.17895,12.18184 4.71723,11.59774 1.83233,-1.98833 6.45029,-25.04066 5.25978,-26.25624 -0.91789,-0.93722 12.90731,-8.805766 15.47192,-8.805766 2.64869,0 -6.75465,22.749806 -13.65937,33.046546 -6.64608,9.91104 -6.62649,8.03581 -0.29972,28.702928 4.61561,15.07746 7.06509,18.23718 14.1727,18.28218 l 5,0.0316 -7.68476,3.1602 c -4.22661,1.7381 -9.1555,4.12386 -10.95309,5.30168 -4.22053,2.7654 -3.55561,3.01018 -9.57605,-3.52518 z m 358.02179,2.23647 c -1.12696,-1.12696 -6.28108,-2.45952 -11.98879,-3.09961 -26.25957,-2.94488 -38.28189,-35.38676 -23.76785,-64.136858 6.39198,-12.66153 27.92252,-20.212306 38.99904,-13.676998 4.96872,2.931618 8.71906,1.937558 15.28304,-4.050878 l 3,-2.736958 v 39.354704 39.354698 l -5.35544,1.60453 c -2.9455,0.88249 -7.34394,3.35045 -9.77432,5.48436 -3.90484,3.42849 -4.64883,3.64986 -6.39568,1.90301 z m -5.71792,-6.85025 c 6.86316,-6.86316 11.04622,-63.307458 5.17268,-69.797658 -4.77202,-5.273003 -13.47823,-3.34474 -17.13711,3.79555 -10.97383,21.41536 -0.61172,78.578248 11.96443,66.002108 z M 7.2257593,139.85162 C 15.887647,135.91881 15.668694,137.60887 15.64625,74.855212 15.62417,13.121613 15.77895,14.341261 7.8226963,13.205587 L 2.4187129,12.434223 13.706106,7.2590822 l 11.287393,-5.175141 5.2819,5.841808 5.2819,5.8418068 0.05468,62.333336 0.05468,62.333328 h 3.333333 3.333333 V 69.767552 c 8e-6,-60.1481428 0.24812,-68.6666618 2.000008,-68.6666618 1.1,0 2,0.6 2,1.333334 0,0.839506 8.888889,1.333333 23.999999,1.333333 h 24 L 94.260822,15.434223 94.188312,27.10089 91.907848,21.150491 C 80.313513,-9.1025128 46.333333,1.2536632 46.333333,35.040283 c 0,28.289719 -0.653999,27.393939 19.999999,27.393939 h 14.666667 l -0.02928,11.66667 -0.02928,11.66666 -2.482014,-5.46524 c -5.037043,-11.09126 -24.551872,-17.42178 -29.949559,-9.7155 -3.169588,4.52522 -3.256465,60.378898 -0.10092,64.884058 7.053515,10.07031 40.71063,1.61112 44.545163,-11.19572 0.875552,-2.92423 1.177376,-1.2156 1.264627,7.15907 l 0.114596,11 L 48,142.40492 1.6666686,142.37562 7.2257593,139.85158 Z M 667.66664,139.27374 c -20.54809,-3.72581 -26.61629,-12.5814 -26.65084,-38.89272 -0.0432,-32.888058 8.66513,-42.184466 40.3175,-43.040203 l 18.33334,-0.495651 v 19.916816 19.91681 l -5.35544,1.60452 c -2.9455,0.8825 -7.4455,3.439628 -10,5.682508 l -4.64456,4.07798 v -4.80479 -4.804788 h -10 -10 l 0.0585,4.999998 c 0.26666,22.76922 5.55166,33.66667 16.32752,33.66667 3.52463,0 16.86924,-6.53096 16.96738,-8.30397 0.0107,-0.19948 0.8847,-2.7627 1.94146,-5.69603 l 1.9214,-5.33334 0.0585,11.66667 0.0585,11.66667 -10.33333,-0.12787 c -5.68334,-0.0703 -14.23334,-0.835 -19,-1.69931 z m 12,-62.172848 V 59.767556 h -4.36999 c -8.98801,0 -12.96763,7.023956 -14.91989,26.333336 l -0.84254,8.33333 h 10.0662 10.06622 z M 187.99839,39.129209 c -3.36,-10.999691 -8.42227,-17.250626 -15.17062,-18.732811 -4.13766,-0.908783 -4.09293,-0.955591 4.329,-4.529424 4.68044,-1.986133 9.84579,-4.45654 11.47858,-5.489791 4.81737,-3.0485278 14.38853,7.052692 17.16521,18.115844 0.60477,2.409621 0.28243,3.274529 -1.2204,3.274529 -3.53361,0 -9.97569,6.522865 -11.81399,11.962145 l -1.76618,5.225901 z"
       id="path335" />
  </g>
</svg>
