<?xml version="1.0" encoding="UTF-8" standalone="no"?>
<!-- Created with Inkscape (http://www.inkscape.org/) -->

<svg
   version="1.1"
   id="svg46"
   width="508.71545"
   height="172.44371"
   viewBox="0 0 508.71545 172.44371"
   sodipodi:docname="options_button.png"
   inkscape:export-filename="options_button.svg"
   inkscape:export-xdpi="96"
   inkscape:export-ydpi="96"
   xmlns:inkscape="http://www.inkscape.org/namespaces/inkscape"
   xmlns:sodipodi="http://sodipodi.sourceforge.net/DTD/sodipodi-0.dtd"
   xmlns="http://www.w3.org/2000/svg"
   xmlns:svg="http://www.w3.org/2000/svg">
  <defs
     id="defs50" />
  <sodipodi:namedview
     id="namedview48"
     pagecolor="#505050"
     bordercolor="#ffffff"
     borderopacity="1"
     inkscape:showpageshadow="0"
     inkscape:pageopacity="0"
     inkscape:pagecheckerboard="1"
     inkscape:deskcolor="#d1d1d1"
     showgrid="false" />
  <g
     inkscape:groupmode="layer"
     inkscape:label="Image"
     id="g52"
     transform="translate(-1.6422797,-1.1114838)">
    <path
       style="fill:#afafaf;stroke-width:1.33333"
       d="m 113.32294,118.3645 c 0,-61.262974 0.7276,-56.718065 -9.10905,-56.899555 -4.682721,-0.0864 -4.749031,-0.150839 -1.55761,-1.513589 1.83333,-0.782841 7.06227,-3.254281 11.61987,-5.492088 8.17906,-4.015962 8.32287,-4.035865 11.08707,-1.534304 2.34206,2.119535 4.49832,2.470103 13.1716,2.141455 47.79727,-1.811132 53.95018,71.578771 6.41636,76.532401 -11.24338,1.17171 -11.62824,1.80023 -11.62824,18.99099 v 13.20994 l -5.27324,1.5799 c -2.90029,0.86895 -7.0369,3.06392 -9.19248,4.87772 -2.15557,1.8138 -4.28261,3.29782 -4.72675,3.29782 -0.44414,0 -0.80753,-24.83582 -0.80753,-55.19069 z m 37.89539,8.19069 c 8.47227,-12.98855 5.87188,-63.764975 -3.56205,-69.554436 -12.86638,-7.895896 -20.02161,51.569666 -8.34875,69.384696 2.77335,4.23266 9.20085,4.32426 11.9108,0.16974 z m 107.41753,-15.93215 c -0.0224,-41.260903 -0.008,-41.180831 -7.82356,-42.296491 l -5.40398,-0.771364 11.14166,-5.108088 11.14166,-5.108089 5.46298,5.774755 5.46298,5.774755 -0.31399,34.482322 -0.314,34.48232 -5.33333,2.05064 c -2.93334,1.12784 -7.28334,3.49133 -9.66667,5.2522 l -4.33333,3.20156 -0.0204,-37.73452 z m -55.97958,-4.28915 V 65.555185 h -8 c -6.22223,0 -8,-0.444444 -8,-2 0,-1.555556 1.77777,-2 8,-2 h 8 V 52.93543 c 0,-9.636489 -1.39202,-11.303375 -9.57902,-11.470486 -4.33773,-0.08855 -4.35821,-0.116773 -1.08765,-1.498991 1.83333,-0.774813 7.10489,-3.234918 11.71459,-5.4669 l 8.38125,-4.058149 5.28541,5.161071 c 5.26514,5.141264 5.28542,5.200965 5.28542,15.55714 v 10.39607 h 9.33333 c 7.40741,0 9.33333,0.412698 9.33333,2 0,1.587301 -1.92592,2 -9.33333,2 h -9.33333 v 35.229935 35.22993 l -5,1.62524 c -2.75,0.89388 -7.25,3.39084 -10,5.54878 l -5,3.92353 z m 174.66666,-0.51204 c 0,-42.003955 0.0764,-41.599999 -7.86666,-41.599999 -5.74246,0 -4.75294,-0.866465 7.64381,-6.693237 l 9.77713,-4.595495 5.92402,6.269927 5.92402,6.269927 9.63218,-3.45755 c 5.29769,-1.901652 12.4104,-4.856891 15.806,-6.567196 l 6.17384,-3.109647 5.51548,6.541034 5.51548,6.541035 -0.35599,34.267079 -0.35597,34.267072 -5.29363,1.83205 c -2.91149,1.00763 -6.84433,3.31772 -8.73963,5.13354 -1.89529,1.8158 -3.86316,3.30146 -4.37304,3.30146 -0.50986,0 -0.92704,-16.98532 -0.92704,-37.74516 0,-46.234448 0.60083,-44.487617 -13.56922,-39.450807 l -9.76411,3.470699 -0.35657,31.991878 -0.35658,31.99189 -5.25,1.57293 c -2.8875,0.86512 -7.01366,3.05696 -9.16924,4.87076 -2.15557,1.8138 -4.28261,3.29781 -4.72676,3.29781 -0.44413,0 -0.80752,-17.28 -0.80752,-38.4 z M 37.314312,141.72196 C 13.436488,133.89256 0.34772282,106.60182 1.7435849,67.555185 5.0168798,-24.00911 95.943309,-19.504602 95.943309,72.221851 c 0,46.618049 -27.823777,79.600979 -58.628997,69.500109 z M 59.144075,134.791 C 82.545763,116.38323 81.10295,23.147808 57.197879,9.0267337 49.922843,4.7292647 40.572955,6.8400447 34.367303,14.180841 31.606478,17.44668 30.716094,124.68424 33.40804,129.71419 c 4.020754,7.51285 18.906142,10.44921 25.736035,5.07681 z M 27.895662,72.555185 C 27.795627,24.640448 26.667638,19.67347 22.617283,49.312424 c -2.691252,19.693566 0.732475,68.242766 4.812533,68.242766 0.307887,0 0.517518,-20.250002 0.465846,-45.000005 z M 315.98961,135.88396 c -18.40824,-6.1509 -28.17553,-36.453892 -18.67949,-57.953092 13.44386,-30.437169 54.0591,-26.427477 63.22566,6.24188 9.0547,32.270692 -15.92928,61.273212 -44.54617,51.711212 z m 18.98899,-4.17678 c 13.71762,-10.41498 10.75993,-64.671197 -3.82779,-70.217442 -14.40953,-5.478495 -24.98367,33.71532 -16.31388,60.468582 3.34552,10.32361 13.14043,15.06449 20.14167,9.74886 z m 121.10496,-8.48533 0.094,-11.66666 1.92105,5.24491 c 6.12327,16.71799 28.10784,19.63665 31.97104,4.24444 1.22388,-4.87632 -3.25205,-11.40379 -13.30473,-19.40295 -24.09934,-19.176422 -27.08351,-34.900805 -8.34499,-43.971968 19.93036,-9.64812 52.71188,13.291621 38.44761,26.904736 l -4.87793,4.65521 -9.10512,-4.99959 c -8.17971,-4.49145 -8.77281,-5.08301 -5.83545,-5.82024 12.20336,-3.06285 6.55026,-19.52122 -6.70511,-19.52122 -15.8106,0 -12.52908,17.96997 6.08704,33.33333 34.07748,28.123192 28.90535,42.666672 -15.17365,42.666672 h -15.26771 l 0.094,-11.66667 z M 265.50088,39.888517 c -2.41858,-10.717 -6.64082,-17.261993 -13.06154,-20.246993 l -5.55026,-2.580328 10.70274,-5.208043 10.70275,-5.2080433 5.33604,5.1217043 c 7.48915,7.188342 11.73668,17.78837 7.12797,17.78837 -3.58582,0 -10.03813,6.810056 -11.46185,12.097335 -1.79609,6.670185 -1.90373,6.620163 -3.79585,-1.764002 z"
       id="path343" />
  </g>
</svg>
