<?xml version="1.0" encoding="UTF-8" standalone="no"?>
<!-- Created with Inkscape (http://www.inkscape.org/) -->

<svg
   version="1.1"
   id="svg38"
   width="543.72034"
   height="173.75415"
   viewBox="0 0 543.72034 173.75415"
   sodipodi:docname="settings_button.png"
   xmlns:inkscape="http://www.inkscape.org/namespaces/inkscape"
   xmlns:sodipodi="http://sodipodi.sourceforge.net/DTD/sodipodi-0.dtd"
   xmlns="http://www.w3.org/2000/svg"
   xmlns:svg="http://www.w3.org/2000/svg">
  <defs
     id="defs42" />
  <sodipodi:namedview
     id="namedview40"
     pagecolor="#505050"
     bordercolor="#ffffff"
     borderopacity="1"
     inkscape:showpageshadow="0"
     inkscape:pageopacity="0"
     inkscape:pagecheckerboard="1"
     inkscape:deskcolor="#d1d1d1"
     showgrid="false" />
  <g
     inkscape:groupmode="layer"
     inkscape:label="Image"
     id="g44"
     transform="translate(-0.13983849,-0.45626122)">
    <path
       style="fill:#afafaf;stroke-width:1.33333"
       d="m 440.91583,171.89578 c 0,-0.30827 2.079,-4.65827 4.62,-9.66667 11.38816,-22.44645 10.53892,-30.48343 -3.40339,-32.20877 -21.19719,-2.62312 -30.56983,-16.00156 -28.79815,-41.106287 2.00708,-28.440567 21.99616,-42.565927 45.85631,-32.404543 4.06181,1.729813 4.53949,1.607772 9.58848,-2.449704 2.92255,-2.348617 5.73384,-4.270213 6.24732,-4.270213 1.99372,0 -0.49004,68.314617 -2.81165,77.333327 -4.89719,19.02391 -31.29892,56.79139 -31.29892,44.77286 z m 9.52373,-48.10619 c 12.48928,-21.53249 0.63928,-85.442858 -11.99145,-64.673269 -6.66207,10.954884 -7.78206,52.172749 -1.73232,63.752699 3.7816,7.23844 9.82417,7.64377 13.72377,0.92057 z M 292.64088,108.97997 c -0.43547,-42.327336 -0.31629,-41.809797 -9.64656,-41.893734 -3.38695,-0.03047 -2.17208,-0.940386 7.16483,-5.366338 l 11.24332,-5.329647 5.09001,4.970269 5.09001,4.970268 v 35.623452 35.62347 l -3.92278,0.86159 c -2.15754,0.47388 -6.33126,2.60628 -9.27495,4.73868 l -5.35217,3.87709 z M 170.24916,105.26104 V 64.45626 h -8.66667 c -6.81481,0 -8.66666,-0.427351 -8.66666,-2 0,-1.57265 1.85185,-2 8.66666,-2 h 8.66667 l -0.0204,-7.666667 c -0.0256,-9.606047 -1.08839,-11.267259 -7.82356,-12.228637 l -5.404,-0.771364 11.14167,-5.108088 11.14165,-5.108088 5.44899,5.774755 c 5.33422,5.65314 5.44968,5.978332 5.48232,15.441422 l 0.0333,9.666667 h 8.66667 c 6.81481,0 8.66666,0.42735 8.66666,2 0,1.572649 -1.85185,2 -8.66666,2 h -8.66667 v 35.281943 35.281937 l -5.35084,1.44084 c -2.94296,0.79245 -7.44296,3.27773 -10,5.52284 l -4.64916,4.08201 z m 66.66667,-0.0753 V 64.45626 h -8.66667 c -6.81481,0 -8.66667,-0.427351 -8.66667,-2 0,-1.57265 1.85186,-2 8.66667,-2 h 8.66667 v -8.587978 c 0,-9.452404 -0.58664,-10.256595 -8.29064,-11.365282 l -4.95732,-0.713408 11.21092,-5.139953 11.21092,-5.139953 5.41305,5.690309 c 5.31967,5.592129 5.41307,5.859103 5.41307,15.473287 v 9.782978 h 9.33333 c 7.40741,0 9.33333,0.412698 9.33333,2 0,1.587301 -1.92592,2 -9.33333,2 h -9.33333 v 35.229933 35.229927 l -5,1.58224 c -2.75,0.87023 -7.25,3.34504 -10,5.49956 l -5,3.91734 z m 97.33333,-0.46282 c 0,-42.00395 0.0764,-41.599994 -7.86667,-41.599994 -5.73881,0 -4.75049,-0.867786 7.59724,-6.670709 l 9.73058,-4.572966 5.91941,6.265856 5.91943,6.265855 9.68333,-3.476006 c 5.32584,-1.911805 12.42228,-4.855435 15.76985,-6.541402 l 6.08651,-3.065395 5.60279,6.504444 5.6028,6.504443 -0.35598,34.259417 -0.35596,34.259407 -5.21236,1.80392 c -2.8668,0.99216 -7.2168,3.33277 -9.66666,5.20137 l -4.45431,3.39747 v -37.97261 c 0,-46.368114 0.525,-45.034062 -15.33333,-38.962715 l -8,3.062792 -0.35639,31.917463 -0.3564,31.91747 -5.84664,1.72631 c -3.21564,0.94946 -7.20985,3.1774 -8.87601,4.95094 -1.66618,1.77355 -3.52482,3.22464 -4.13031,3.22464 -0.60551,0 -1.10092,-17.28 -1.10092,-38.4 z m -330.5520625,23.4 c 0.087252,-8.37467 0.3890756,-10.0833 1.2646278,-7.15907 2.392526,7.99073 10.5369757,13.83411 20.1430277,14.45197 l 5.811074,0.37377 0.293778,-32 0.29378,-31.999997 -9.37196,-6.410305 C -15.788155,39.442756 -2.3321955,0.54894622 44.582493,0.48554122 L 66.24916,0.45626122 66.143897,11.456262 c -0.08989,9.393194 -0.30895,10.415706 -1.49968,7 C 61.854771,10.454499 52.580036,3.1057022 45.315373,3.1411342 c -10.294017,0.05021 -9.73288,-1.683889 -9.73288,30.0777598 v 28.451615 l 9.406456,5.588272 c 20.908283,12.421383 28.242139,23.202025 28.20216,41.456689 -0.05381,24.5706 -9.333088,30.40746 -48.34091,30.40746 H 3.5824939 Z m 40.2713115,1.63524 c 15.039738,-13.2385 9.324238,-54.635234 -7.543294,-54.635234 -0.463442,0 -0.842622,13.499997 -0.842622,29.999994 0,16.5 0.515527,30 1.145614,30 0.630088,0 3.888224,-2.41414 7.240302,-5.36476 z M 31.534543,32.789592 31.486593,7.7895922 28.269537,11.725794 c -8.094532,9.903999 -5.889053,46.063799 2.809551,46.063799 0.276873,0 0.481829,-11.25 0.455455,-25.000001 z M 111.58249,136.28374 C 89.910153,132.75475 81.84236,119.31002 84.062792,90.423003 86.268532,61.727134 95.612896,53.789593 127.18899,53.789593 h 16.4648 l -0.36899,19.534141 -0.36897,19.534139 -5.30779,1.83596 c -2.91928,1.00977 -7.26928,3.73711 -9.66666,6.060737 l -4.35889,4.2248 v -4.92823 -4.928217 h -10 -10 v 11.008797 c 0,12.73629 1.44598,18.85331 5.46894,23.13554 8.39653,8.9377 25.43431,2.81854 29.51246,-10.59947 l 1.68527,-5.54487 0.39329,10.54881 c 0.21632,5.80185 0.0852,11.35185 -0.29148,12.33334 -0.79673,2.07627 -16.77832,2.23107 -28.76848,0.27867 z m 12,-62.494147 V 56.456259 h -4.75432 c -9.66511,0 -13.66484,6.529273 -14.90623,24.333334 l -0.72049,10.33333 h 10.19052 10.19052 z m 366.78692,48.481597 c 0.1036,-10.17659 0.30354,-11.16782 1.442,-7.14827 4.16943,14.72092 23.33924,20.15228 30.46024,8.63028 4.70124,-7.60677 2.50522,-11.24066 -17.24453,-28.535507 -21.60257,-18.917389 -16.89144,-41.4281 8.67025,-41.4281 19.86351,0 37.41635,19.478439 27.12302,30.098467 l -4.09544,4.225423 -9.30531,-4.774246 c -7.70561,-3.953494 -8.84864,-4.943172 -6.64896,-5.756891 11.66276,-4.314333 7.13105,-19.792753 -5.79484,-19.792753 -17.74017,0 -13.08213,18.651713 9.11708,36.50663 29.74412,23.923317 24.36123,38.159617 -14.84376,39.257727 l -19,0.53219 0.12027,-11.81495 z M 298.63305,36.228451 c -3.25461,-11.046818 -8.58306,-17.672244 -15.45346,-19.214927 -2.46331,-0.553112 -3.41923,-1.213779 -2.26376,-1.564563 1.1,-0.333948 6.38418,-2.732304 11.74264,-5.329681 l 9.74264,-4.7225038 5.38286,5.1964078 c 5.25131,5.069404 6.9208,7.901739 8.5991,14.588545 0.60477,2.409622 0.28242,3.27453 -1.2204,3.27453 -3.58734,0 -9.98856,6.558513 -11.84918,12.140315 l -1.80134,5.404071 z"
       id="path329" />
  </g>
</svg>
